<mxfile host="app.diagrams.net" modified="2024-05-21T07:07:36.130Z" agent="Mozilla/5.0 (Windows NT 10.0; Win64; x64) AppleWebKit/537.36 (KHTML, like Gecko) Chrome/124.0.0.0 Safari/537.36 Edg/124.0.0.0" version="24.4.4" etag="B-RT7CGW0TfqwuETqmO3" type="github">
  <diagram name="Page-1" id="ndEK_MVkZRU5j7hTS9hO">
    <mxGraphModel>
      <root>
        <mxCell id="0" />
        <mxCell id="1" parent="0" />
      </root>
    </mxGraphModel>
  </diagram>
</mxfile>
